<?xml version="1.0" standalone="no"?>
<!DOCTYPE svg PUBLIC "-//W3C//DTD SVG 20010904//EN"
 "http://www.w3.org/TR/2001/REC-SVG-20010904/DTD/svg10.dtd">
<svg version="1.0" xmlns="http://www.w3.org/2000/svg"
 width="256.000000pt" height="256.000000pt" viewBox="0 0 256.000000 256.000000"
 preserveAspectRatio="xMidYMid meet">
<metadata>
Created by potrace 1.14, written by Peter Selinger 2001-2017
</metadata>
<g transform="translate(0.000000,256.000000) scale(0.100000,-0.100000)"
fill="#000000" stroke="none">
<path d="M2311 2448 c-41 -11 -90 -44 -236 -157 -92 -72 -359 -297 -415 -351
-9 -8 -54 -49 -101 -91 -168 -153 -365 -338 -580 -548 -192 -186 -228 -236
-231 -322 l-2 -44 -76 0 c-90 -1 -147 -25 -210 -89 -94 -96 -139 -194 -147
-326 -3 -54 -12 -100 -25 -127 -25 -54 -101 -123 -175 -158 l-57 -27 39 -24
c93 -56 142 -69 270 -69 114 0 124 2 199 34 144 62 300 186 376 299 31 47 53
135 48 199 l-3 46 48 4 c27 2 68 13 91 24 41 19 200 173 459 444 114 119 128
135 262 280 50 54 95 103 100 109 6 6 62 70 124 141 63 72 125 144 140 160 14
17 42 50 61 75 19 25 37 47 40 50 14 13 112 142 151 199 38 57 43 71 43 119
-2 102 -96 175 -193 150z m77 -125 c6 -9 12 -24 12 -33 0 -27 -262 -361 -404
-515 -18 -20 -74 -83 -154 -174 -37 -41 -239 -257 -333 -356 -48 -49 -115
-120 -150 -158 l-63 -68 -108 108 c-59 59 -108 111 -108 114 0 13 296 294 626
594 6 6 39 35 74 65 34 30 73 65 86 77 13 12 63 54 111 95 48 40 90 76 93 79
3 4 62 49 133 102 132 99 156 109 185 70z m-1231 -1441 c-67 -68 -112 -89
-169 -78 -78 15 -128 72 -133 150 -3 54 16 89 84 159 l56 57 112 -112 113
-113 -63 -63z m-400 -63 c71 -23 138 -135 126 -212 -27 -181 -321 -397 -540
-397 -55 0 -64 8 -37 31 27 22 74 97 90 141 8 24 17 70 20 103 7 91 13 115 39
174 68 147 172 202 302 160z"/>
</g>
</svg>
